HIERARCHY
ROOT Hips
{
	OFFSET -0.001795 -0.223333 0.028219
	CHANNELS 6 Xposition Yposition Zposition Zrotation Yrotation Xrotation 
	JOINT LeftUpLeg
	{
		OFFSET 0.069520 -0.091406 -0.006815
		CHANNELS 3 Zrotation Yrotation Xrotation
		JOINT LeftLeg
		{
			OFFSET 0.034277 -0.375199 -0.004496
			CHANNELS 3 Zrotation Yrotation Xrotation
			JOINT LeftFoot
			{
				OFFSET -0.013596 -0.397961 -0.043693
				CHANNELS 3 Zrotation Yrotation Xrotation
				JOINT LeftToe
				{
					OFFSET 0.026358 -0.055791 0.119288
					CHANNELS 3 Zrotation Yrotation Xrotation
					End Site
					{
						OFFSET 0.000000 0.000000 0.000000
					}
				}
			}
		}
	}
	JOINT RightUpLeg
	{
		OFFSET -0.067670 -0.090522 -0.004320
		CHANNELS 3 Zrotation Yrotation Xrotation
		JOINT RightLeg
		{
			OFFSET -0.038290 -0.382569 -0.008850
			CHANNELS 3 Zrotation Yrotation Xrotation
			JOINT RightFoot
			{
				OFFSET 0.015774 -0.398415 -0.042312
				CHANNELS 3 Zrotation Yrotation Xrotation
				JOINT RightToe
				{
					OFFSET -0.025372 -0.048144 0.123348
					CHANNELS 3 Zrotation Yrotation Xrotation
					End Site
					{
						OFFSET 0.000000 0.000000 0.000000
					}
				}
			}
		}
	}
	JOINT Spine
	{
		OFFSET -0.002533 0.108963 -0.026696
		CHANNELS 3 Zrotation Yrotation Xrotation
		JOINT Spine1
		{
			OFFSET 0.005487 0.135180 0.001092
			CHANNELS 3 Zrotation Yrotation Xrotation
			JOINT Spine2
			{
				OFFSET 0.001457 0.052922 0.025425
				CHANNELS 3 Zrotation Yrotation Xrotation
				JOINT Neck
				{
					OFFSET -0.002778 0.213870 -0.042857
					CHANNELS 3 Zrotation Yrotation Xrotation
					JOINT Head
					{
						OFFSET 0.005152 0.064970 0.051349
						CHANNELS 3 Zrotation Yrotation Xrotation
						End Site
						{
							OFFSET 0.000000 0.000000 0.000000
						}
					}
				}
				JOINT LeftShoulder
				{
					OFFSET 0.078845 0.121749 -0.034090
					CHANNELS 3 Zrotation Yrotation Xrotation
					JOINT LeftArm
					{
						OFFSET 0.090977 0.030469 -0.008868
						CHANNELS 3 Zrotation Yrotation Xrotation
						JOINT LeftForeArm
						{
							OFFSET 0.259612 -0.012772 -0.027456
							CHANNELS 3 Zrotation Yrotation Xrotation
							JOINT LeftHand
							{
								OFFSET 0.249234 0.008986 -0.001171
								CHANNELS 3 Zrotation Yrotation Xrotation
								End Site
								{
									OFFSET 0.000000 0.000000 0.000000
								}
							}
						}
					}
				}
				JOINT RightShoulder
				{
					OFFSET -0.081759 0.118833 -0.038615
					CHANNELS 3 Zrotation Yrotation Xrotation
					JOINT RightArm
					{
						OFFSET -0.096012 0.032551 -0.009143
						CHANNELS 3 Zrotation Yrotation Xrotation
						JOINT RightForeArm
						{
							OFFSET -0.253742 -0.013329 -0.021401
							CHANNELS 3 Zrotation Yrotation Xrotation
							JOINT RightHand
							{
								OFFSET -0.255298 0.007772 -0.005559
								CHANNELS 3 Zrotation Yrotation Xrotation
								End Site
								{
									OFFSET 0.000000 0.000000 0.000000
								}
							}
						}
					}
				}
			}
		}
	}
}
MOTION
Frames: 8
Frame Time: 0.050000
0.000000 0.943873 0.000000 -4.122212 2.027589 1.605787 8.698999 -0.258482 -5.013187 -7.426659 0.745862 -0.623591 11.916470 23.145407 15.646667 0.000000 0.000000 0.000000 -3.120216 0.425671 -4.777440 3.061794 -0.311946 2.381881 -14.398856 -28.060025 25.520548 0.000000 0.000000 0.000000 -5.272231 0.077551 13.628667 3.909756 -0.335245 -23.411798 0.134724 0.540418 27.673692 -1.131746 2.296058 -20.078019 0.000000 0.000000 0.000000 -12.729722 -2.474955 0.309785 -48.816823 0.087925 -8.136285 -91.512387 -37.871043 43.215406 0.000000 0.000000 0.000000 6.389957 6.367642 2.548459 52.260213 -6.558175 -10.041006 85.980891 45.989243 47.752389 0.000000 0.000000 0.000000 
-0.000484 0.944420 -0.000610 -4.381483 2.360366 1.727407 8.708956 -0.260711 -4.521482 -6.882489 0.652954 -1.928206 11.672267 22.825462 15.819815 0.000000 0.000000 0.000000 -2.150751 0.359639 -3.732860 1.937120 -0.209508 0.267995 -14.473850 -28.044339 26.067484 0.000000 0.000000 0.000000 -5.170491 0.059907 13.203283 2.587746 -0.013890 -23.130553 1.180252 0.302774 26.639306 -2.454378 3.188765 -21.581681 0.000000 0.000000 0.000000 -13.040167 -0.947047 -0.476190 -45.602263 0.064499 -7.462816 -96.303156 -34.459657 42.177009 0.000000 0.000000 0.000000 3.699376 6.207905 2.348194 52.621516 -8.973378 -10.897370 91.882311 43.935305 49.843614 0.000000 0.000000 0.000000 
-0.000405 0.945086 -0.001086 -4.537642 2.950512 1.559413 8.832561 -0.269111 -4.480587 -6.793261 0.634430 -1.941124 11.312589 22.370578 15.763896 0.000000 0.000000 0.000000 -2.167853 0.323503 -3.324219 2.310585 -0.261954 -0.088177 -14.752274 -28.263723 26.592855 0.000000 0.000000 0.000000 -5.321208 0.067331 12.616338 2.953056 -0.138729 -22.090086 -0.012011 1.556415 26.176916 0.045962 1.826159 -20.904556 0.000000 0.000000 0.000000 -12.491331 -1.328911 -0.534487 -45.155563 1.563679 -7.847429 -93.753855 -36.104087 41.335699 0.000000 0.000000 0.000000 4.436748 4.575993 1.827644 51.514679 -10.043235 -10.941917 91.505047 42.324757 48.382406 0.000000 0.000000 0.000000 
0.000027 0.945319 -0.001317 -4.854280 2.429355 1.690240 8.905751 -0.255785 -4.259507 -6.366738 0.596172 -2.456355 11.598421 22.722047 16.001910 0.000000 0.000000 0.000000 -2.023669 0.346372 -3.551753 2.576821 -0.289149 -0.107567 -14.403236 -27.881326 26.497816 0.000000 0.000000 0.000000 -5.457591 0.093401 11.502766 2.786261 -0.110852 -22.073409 -0.155707 1.871236 27.011474 0.195156 1.691908 -20.176545 0.000000 0.000000 0.000000 -12.640518 -0.944659 -0.719334 -43.290742 2.161585 -7.746073 -94.543058 -36.925664 42.576451 0.000000 0.000000 0.000000 3.014575 4.717570 1.823191 50.244874 -10.513126 -10.880154 94.533211 40.390220 48.511661 0.000000 0.000000 0.000000 
0.000838 0.945998 -0.001222 -5.013727 2.211878 1.402365 8.803349 -0.241941 -3.858452 -5.975761 0.567244 -2.521275 11.676839 22.808401 16.148865 0.000000 0.000000 0.000000 -2.083343 0.328529 -3.353067 2.885213 -0.320225 0.053559 -14.201608 -27.627736 26.588884 0.000000 0.000000 0.000000 -5.707150 0.118336 11.322630 2.801891 -0.156381 -21.313388 -0.557764 2.056989 26.608477 0.456770 1.454754 -19.015269 0.000000 0.000000 0.000000 -11.617470 -0.411035 -0.888327 -43.283502 3.044825 -8.004092 -92.619504 -37.759112 42.093397 0.000000 0.000000 0.000000 2.545763 4.381096 1.668447 48.714589 -10.764602 -10.558468 94.845116 37.751987 45.498161 0.000000 0.000000 0.000000 
0.002060 0.946366 -0.001164 -5.118627 2.135808 1.491990 9.050420 -0.236284 -3.543721 -6.353645 0.582193 -3.227754 11.665434 22.780936 16.346742 0.000000 0.000000 0.000000 -2.021536 0.305368 -3.060912 2.357806 -0.271013 -0.523758 -13.174637 -26.307657 26.626526 0.000000 0.000000 0.000000 -5.986605 0.148661 10.762272 2.499575 -0.058368 -21.710334 -0.383583 2.213469 27.343721 0.804888 1.223398 -18.804823 0.000000 0.000000 0.000000 -11.296431 -0.375831 -0.874719 -41.893810 3.463977 -7.913691 -91.339087 -38.541398 41.897460 0.000000 0.000000 0.000000 1.448547 4.739763 1.756637 48.738960 -11.874724 -10.998490 95.305002 36.441569 44.453258 0.000000 0.000000 0.000000 
0.003512 0.946401 -0.001103 -5.181342 2.025648 1.475751 9.056631 -0.233639 -3.558311 -6.416187 0.591013 -3.122654 11.739091 22.875171 16.299236 0.000000 0.000000 0.000000 -2.029972 0.304477 -3.047117 1.824420 -0.210120 -0.369348 -12.115504 -24.964045 26.427374 0.000000 0.000000 0.000000 -6.319323 0.183470 10.661164 2.593938 -0.099299 -21.411632 -0.509850 2.604072 27.131163 1.304333 0.917731 -18.515385 0.000000 0.000000 0.000000 -11.029834 -0.322669 -0.923572 -40.859657 4.136849 -7.881645 -89.885914 -38.847674 40.960404 0.000000 0.000000 0.000000 1.184423 4.684522 1.727954 47.801246 -12.698151 -11.017330 95.676002 35.126075 43.198642 0.000000 0.000000 0.000000 
0.005174 0.946186 -0.001126 -5.425798 1.742596 1.658306 8.898522 -0.230842 -3.477461 -5.866634 0.546311 -3.527774 11.940865 23.130561 16.282848 0.000000 0.000000 0.000000 -1.957787 0.313853 -3.130606 1.270367 -0.150850 -0.409807 -10.556978 -22.974027 26.036953 0.000000 0.000000 0.000000 -6.374574 0.194522 10.550782 2.488826 -0.069256 -21.606521 -0.226320 2.914569 27.181305 1.824981 0.505204 -17.623922 0.000000 0.000000 0.000000 -12.044867 -0.441888 -0.994967 -39.253504 4.722355 -7.702664 -89.049286 -38.918578 40.275607 0.000000 0.000000 0.000000 0.907646 4.999432 1.829908 48.041743 -13.550800 -11.370805 95.793144 34.617603 42.749605 0.000000 0.000000 0.000000 
